<svg width="2400" height="2400" viewBox="0 0 2400 2400" fill="none" xmlns="http://www.w3.org/2000/svg">
<path fill-rule="evenodd" clip-rule="evenodd" d="M1206.22 349.744C1202.34 343.15 1193 342.82 1189.16 349.435C1136 440.974 846.39 939.86 793.903 1034.41C788.203 1044.68 788.699 1055.24 794.337 1065.55L1211.8 1828.4C1219.09 1841.73 1209.45 1858 1194.26 1858H709.544C701.797 1858 696.992 1866.43 700.94 1873.1L811.095 2059.1C812.896 2062.14 816.167 2064 819.7 2064H1592.8C1600.47 2064 1605.29 2055.72 1601.49 2049.05L1038.71 1060.1C1035.23 1053.98 1035.22 1046.48 1038.7 1040.35L1180.86 789.607C1188.46 776.193 1207.75 776.068 1215.52 789.382L1486.42 1253.05C1490.27 1259.64 1499.8 1259.66 1503.68 1253.07L1617.64 1059.27C1619.48 1056.14 1619.48 1052.26 1617.64 1049.13L1206.22 349.744ZM660.812 1291.42C656.937 1284.78 647.331 1284.81 643.503 1291.48L208.599 2049.02C204.772 2055.69 209.585 2064 217.272 2064H436.25C439.821 2064 443.122 2062.1 444.909 2059L772.308 1492.44C774.105 1489.33 774.097 1485.5 772.286 1482.4L660.812 1291.42ZM1753.72 1291.35C1749.9 1284.71 1740.34 1284.67 1736.45 1291.26L1624.1 1481.76C1622.27 1484.86 1622.25 1488.71 1624.05 1491.83L1951.31 2059.99C1953.09 2063.09 1956.4 2065 1959.97 2065H2182.69C2190.38 2065 2195.19 2056.67 2191.35 2050L1753.72 1291.35Z" fill="#353535"/>
<path fill-rule="evenodd" clip-rule="evenodd" d="M316.5 1858L208.439 2049.08C204.669 2055.74 209.485 2064 217.144 2064H436.264C439.828 2064 443.122 2062.1 444.912 2059.02L561.618 1858H316.5Z" fill="#00C2FF"/>
</svg>
