<svg width="404" height="101" viewBox="0 0 404 101" fill="none" xmlns="http://www.w3.org/2000/svg">
<path fill-rule="evenodd" clip-rule="evenodd" d="M56.4985 14.0768C56.3353 13.7995 55.9434 13.7846 55.7819 14.0627C53.5228 17.9521 41.088 39.3725 38.8584 43.3911C38.6187 43.823 38.6403 44.2662 38.8774 44.6994L56.7554 77.3688C57.062 77.9294 56.6566 78.6136 56.0174 78.6136H35.2433C34.9175 78.6136 34.7154 78.9681 34.8814 79.2486L39.6027 87.2205C39.6784 87.3484 39.816 87.4266 39.9645 87.4266H73.0558C73.3784 87.4266 73.5811 87.0784 73.4217 86.7983L49.3344 44.471C49.1881 44.2133 49.1876 43.8979 49.3336 43.6401L55.432 32.8837C55.752 32.3196 56.5628 32.3143 56.89 32.8742L68.4986 52.7432C68.6605 53.0208 69.0612 53.0212 69.224 52.7445L74.1084 44.4387C74.1858 44.307 74.1858 44.1439 74.1084 44.0122L56.4985 14.0768ZM33.1649 54.3631C33.0019 54.0839 32.598 54.0855 32.437 54.3656L13.8185 86.7966C13.6575 87.0771 13.8599 87.4266 14.1832 87.4266H23.5683C23.7184 87.4266 23.8572 87.3467 23.9324 87.2167L37.9433 62.9708C38.0189 62.8401 38.0185 62.6786 37.9424 62.5482L33.1649 54.3631ZM79.9217 54.3601C79.7607 54.0813 79.3587 54.0792 79.1951 54.3568L74.3805 62.5209C74.3035 62.6517 74.3027 62.8131 74.3779 62.9444L88.3831 87.2588C88.458 87.3891 88.5972 87.4695 88.7473 87.4695H98.2924C98.6162 87.4695 98.8185 87.1192 98.6566 86.8387L79.9217 54.3601Z" fill="#353535"/>
<path fill-rule="evenodd" clip-rule="evenodd" d="M18.4409 78.6138L13.8117 86.7993C13.6532 87.0794 13.8557 87.4268 14.1778 87.4268H23.5689C23.7188 87.4268 23.8573 87.3469 23.9326 87.2173L28.9275 78.6138H18.4409Z" fill="#00C2FF"/>
<path d="M122.727 66.3172C119.685 66.3172 116.937 65.797 114.484 64.757C112.051 63.6973 110.039 62.196 108.45 60.2532C106.88 58.2906 105.859 55.9651 105.388 53.2766L111.805 52.3052C112.453 54.8957 113.807 56.9171 115.868 58.3692C117.928 59.8019 120.332 60.5181 123.08 60.5181C124.787 60.5181 126.357 60.2532 127.79 59.7233C129.222 59.1737 130.37 58.3987 131.234 57.3978C132.117 56.3772 132.558 55.1606 132.558 53.7476C132.558 52.9823 132.421 52.3052 132.146 51.7165C131.891 51.1277 131.528 50.6176 131.057 50.1858C130.606 49.7345 130.047 49.3519 129.379 49.0377C128.732 48.7042 128.015 48.4196 127.23 48.1841L116.368 44.9754C115.308 44.6613 114.229 44.2593 113.13 43.7685C112.031 43.2584 111.02 42.6007 110.098 41.7963C109.195 40.972 108.459 39.9614 107.89 38.7643C107.321 37.5475 107.037 36.0757 107.037 34.3487C107.037 31.7386 107.704 29.5309 109.038 27.7254C110.392 25.9003 112.218 24.5266 114.514 23.6043C116.81 22.6623 119.38 22.1913 122.226 22.1913C125.091 22.2305 127.652 22.7408 129.909 23.722C132.185 24.7032 134.069 26.1162 135.561 27.9609C137.072 29.786 138.112 32.0036 138.681 34.6137L132.087 35.7323C131.793 34.1427 131.165 32.7788 130.203 31.6405C129.242 30.4827 128.064 29.5996 126.671 28.9912C125.278 28.3632 123.766 28.0394 122.138 28.0198C120.568 27.9806 119.126 28.2161 117.811 28.7263C116.515 29.2365 115.475 29.9528 114.69 30.8752C113.925 31.7975 113.542 32.8572 113.542 34.0544C113.542 35.2318 113.886 36.1836 114.572 36.9097C115.259 37.6359 116.103 38.2148 117.104 38.6465C118.125 39.0586 119.135 39.4021 120.136 39.6768L127.966 41.8846C128.947 42.1592 130.056 42.5322 131.293 43.0032C132.549 43.4544 133.756 44.0923 134.913 44.9166C136.091 45.7408 137.062 46.8396 137.828 48.2135C138.593 49.5676 138.976 51.2749 138.976 53.3355C138.976 55.4747 138.544 57.3587 137.68 58.9874C136.817 60.5967 135.63 61.9508 134.119 63.0497C132.627 64.1292 130.9 64.9433 128.938 65.4929C126.975 66.0426 124.905 66.3172 122.727 66.3172ZM162.941 66.3172C158.702 66.3172 155.091 65.395 152.108 63.5501C149.125 61.6859 146.839 59.0955 145.249 55.7788C143.679 52.4621 142.894 48.6159 142.894 44.2395C142.894 39.8632 143.679 36.0168 145.249 32.7003C146.839 29.3837 149.125 26.8031 152.108 24.9584C155.091 23.094 158.702 22.1619 162.941 22.1619C167.16 22.1619 170.761 23.094 173.744 24.9584C176.747 26.8031 179.033 29.3837 180.603 32.7003C182.173 36.0168 182.958 39.8632 182.958 44.2395C182.958 48.6159 182.173 52.4621 180.603 55.7788C179.033 59.0955 176.747 61.6859 173.744 63.5501C170.761 65.395 167.16 66.3172 162.941 66.3172ZM162.941 60.4592C165.943 60.4983 168.435 59.8411 170.418 58.487C172.419 57.1131 173.921 55.2098 174.921 52.7762C175.922 50.3233 176.423 47.4776 176.423 44.2395C176.423 41.0015 175.922 38.1755 174.921 35.7617C173.921 33.3282 172.419 31.4345 170.418 30.0804C168.435 28.7263 165.943 28.0394 162.941 28.0198C159.938 27.9806 157.436 28.638 155.434 29.9921C153.452 31.3462 151.961 33.2498 150.96 35.7028C149.959 38.1559 149.448 41.0015 149.429 44.2395C149.409 47.4776 149.9 50.3132 150.901 52.7468C151.902 55.1606 153.403 57.0446 155.405 58.3987C157.426 59.7527 159.938 60.4395 162.941 60.4592ZM188.829 65.4341V23.045H205.961C206.373 23.045 206.884 23.0646 207.492 23.1038C208.101 23.1235 208.68 23.1824 209.229 23.2805C211.584 23.6533 213.546 24.4579 215.116 25.6943C216.706 26.9306 217.893 28.4908 218.678 30.3748C219.463 32.2587 219.856 34.3389 219.856 36.6154C219.856 39.9908 218.992 42.9052 217.265 45.3581C215.538 47.7917 212.948 49.3123 209.494 49.9208L206.992 50.2152H194.981V65.4341H188.829ZM213.615 65.4341L205.255 48.1841L211.466 46.5945L220.65 65.4341H213.615ZM194.981 44.3867H205.726C206.119 44.3867 206.55 44.3669 207.021 44.3278C207.512 44.2887 207.973 44.2198 208.405 44.1218C209.661 43.8274 210.671 43.2879 211.437 42.5027C212.202 41.6981 212.752 40.7758 213.085 39.7357C213.419 38.6956 213.586 37.6555 213.586 36.6154C213.586 35.5753 213.419 34.545 213.085 33.5245C212.752 32.4844 212.202 31.5719 211.437 30.7869C210.671 29.9823 209.661 29.4328 208.405 29.1384C207.973 29.0207 207.512 28.9421 207.021 28.9029C206.55 28.8637 206.119 28.844 205.726 28.844H194.981V44.3867ZM242.486 66.3172C239.445 66.3172 236.697 65.797 234.244 64.757C231.81 63.6973 229.799 62.196 228.209 60.2532C226.639 58.2906 225.619 55.9651 225.148 53.2766L231.565 52.3052C232.213 54.8957 233.567 56.9171 235.627 58.3692C237.688 59.8019 240.092 60.5181 242.839 60.5181C244.547 60.5181 246.117 60.2532 247.549 59.7233C248.982 59.1737 250.13 58.3987 250.993 57.3978C251.877 56.3772 252.318 55.1606 252.318 53.7476C252.318 52.9823 252.181 52.3052 251.906 51.7165C251.651 51.1277 251.288 50.6176 250.817 50.1858C250.366 49.7345 249.806 49.3519 249.139 49.0377C248.491 48.7042 247.775 48.4196 246.99 48.1841L236.128 44.9754C235.068 44.6613 233.989 44.2593 232.89 43.7685C231.791 43.2584 230.78 42.6007 229.858 41.7963C228.955 40.972 228.219 39.9614 227.65 38.7643C227.081 37.5475 226.796 36.0757 226.796 34.3487C226.796 31.7386 227.464 29.5309 228.798 27.7254C230.152 25.9003 231.977 24.5266 234.273 23.6043C236.569 22.6623 239.14 22.1913 241.986 22.1913C244.851 22.2305 247.412 22.7408 249.669 23.722C251.945 24.7032 253.829 26.1162 255.321 27.9609C256.832 29.786 257.872 32.0036 258.441 34.6137L251.847 35.7323C251.553 34.1427 250.925 32.7788 249.963 31.6405C249.001 30.4827 247.824 29.5996 246.431 28.9912C245.038 28.3632 243.526 28.0394 241.897 28.0198C240.328 27.9806 238.885 28.2161 237.57 28.7263C236.275 29.2365 235.235 29.9528 234.45 30.8752C233.685 31.7975 233.302 32.8572 233.302 34.0544C233.302 35.2318 233.645 36.1836 234.332 36.9097C235.019 37.6359 235.863 38.2148 236.864 38.6465C237.884 39.0586 238.895 39.4021 239.896 39.6768L247.726 41.8846C248.707 42.1592 249.816 42.5322 251.052 43.0032C252.308 43.4544 253.515 44.0923 254.673 44.9166C255.851 45.7408 256.822 46.8396 257.587 48.2135C258.353 49.5676 258.735 51.2749 258.735 53.3355C258.735 55.4747 258.303 57.3587 257.44 58.9874C256.577 60.5967 255.389 61.9508 253.878 63.0497C252.387 64.1292 250.66 64.9433 248.697 65.4929C246.735 66.0426 244.665 66.3172 242.486 66.3172ZM262.065 65.4341L275.842 23.045H284.702L298.478 65.4341H292.091L279.403 26.754H280.993L268.453 65.4341H262.065ZM269.218 55.8671V50.0975H291.355V55.8671H269.218ZM304.348 65.4341V23.045H310.5V59.635H329.693V65.4341H304.348ZM335.28 65.4341V23.045H341.432V59.635H360.625V65.4341H335.28ZM369.973 65.4341V47.9191L355.637 23.045H362.82L373.093 40.8543L383.367 23.045H390.549L376.214 47.9191V65.4341H369.973Z" fill="#353535"/>
<path d="M105.981 85.7036V74.8033H112.544V76.6275H107.805V79.3451H111.636V81.1618H107.805V85.7036H105.981ZM116.653 85.9307C116.062 85.9307 115.563 85.8196 115.154 85.5976C114.745 85.3705 114.435 85.0702 114.223 84.6968C114.016 84.3234 113.913 83.9121 113.913 83.463C113.913 83.0693 113.978 82.7161 114.11 82.4032C114.241 82.0853 114.443 81.8128 114.715 81.5857C114.988 81.3535 115.341 81.1643 115.775 81.0179C116.103 80.912 116.486 80.8161 116.925 80.7303C117.369 80.6445 117.849 80.5663 118.364 80.4956C118.883 80.4199 119.426 80.3392 119.991 80.2534L119.34 80.6243C119.345 80.0591 119.219 79.6428 118.962 79.3753C118.704 79.1079 118.27 78.9741 117.66 78.9741C117.291 78.9741 116.935 79.0599 116.592 79.2315C116.249 79.4031 116.009 79.6983 115.873 80.1172L114.208 79.5949C114.41 78.9035 114.793 78.3484 115.358 77.9295C115.929 77.5107 116.696 77.3012 117.66 77.3012C118.386 77.3012 119.025 77.4198 119.575 77.657C120.13 77.8942 120.541 78.2828 120.808 78.8227C120.955 79.1104 121.043 79.4056 121.073 79.7084C121.104 80.0061 121.119 80.3316 121.119 80.6849V85.7036H119.522V83.9323L119.787 84.2199C119.418 84.8104 118.987 85.2443 118.492 85.5219C118.003 85.7944 117.39 85.9307 116.653 85.9307ZM117.016 84.4773C117.43 84.4773 117.783 84.4041 118.076 84.2578C118.369 84.1114 118.601 83.9323 118.772 83.7203C118.949 83.5084 119.068 83.309 119.128 83.1223C119.224 82.8902 119.277 82.6252 119.287 82.3275C119.302 82.0247 119.31 81.78 119.31 81.5932L119.87 81.7598C119.32 81.8456 118.848 81.9213 118.454 81.9869C118.061 82.0525 117.723 82.1156 117.44 82.1761C117.157 82.2316 116.908 82.2947 116.691 82.3653C116.479 82.441 116.3 82.5294 116.153 82.6303C116.007 82.7312 115.893 82.8473 115.813 82.9785C115.737 83.1097 115.699 83.2636 115.699 83.4402C115.699 83.6421 115.75 83.8212 115.85 83.9777C115.951 84.1291 116.098 84.2502 116.29 84.341C116.486 84.4319 116.729 84.4773 117.016 84.4773ZM127.775 85.9307C126.978 85.9307 126.309 85.7414 125.769 85.3629C125.229 84.9845 124.823 84.4697 124.55 83.8187C124.278 83.1627 124.142 82.4284 124.142 81.616C124.142 80.7934 124.278 80.0566 124.55 79.4056C124.823 78.7546 125.221 78.2424 125.746 77.869C126.276 77.4905 126.93 77.3012 127.707 77.3012C128.479 77.3012 129.148 77.4905 129.713 77.869C130.283 78.2424 130.725 78.7546 131.037 79.4056C131.35 80.0516 131.507 80.7883 131.507 81.616C131.507 82.4335 131.353 83.1677 131.045 83.8187C130.737 84.4697 130.303 84.9845 129.743 85.3629C129.183 85.7414 128.527 85.9307 127.775 85.9307ZM123.831 85.7036V74.8033H125.671V79.9658H125.444V85.7036H123.831ZM127.495 84.2956C127.969 84.2956 128.36 84.177 128.668 83.9398C128.976 83.7027 129.203 83.3822 129.349 82.9785C129.501 82.5697 129.576 82.1156 129.576 81.616C129.576 81.1214 129.501 80.6723 129.349 80.2686C129.198 79.8598 128.963 79.5368 128.645 79.2996C128.328 79.0574 127.924 78.9363 127.434 78.9363C126.97 78.9363 126.592 79.0498 126.299 79.2769C126.006 79.499 125.789 79.8118 125.648 80.2156C125.512 80.6142 125.444 81.081 125.444 81.616C125.444 82.1458 125.512 82.6126 125.648 83.0163C125.789 83.4201 126.009 83.7355 126.306 83.9625C126.609 84.1846 127.005 84.2956 127.495 84.2956ZM133.932 85.7036V77.5283H135.544V79.5192L135.347 79.2618C135.448 78.9893 135.582 78.742 135.749 78.52C135.92 78.2929 136.124 78.1062 136.362 77.9598C136.564 77.8235 136.786 77.7176 137.028 77.6419C137.275 77.5611 137.527 77.5132 137.785 77.4981C138.042 77.4779 138.292 77.488 138.534 77.5283V79.2315C138.292 79.1609 138.012 79.1381 137.694 79.1634C137.381 79.1886 137.098 79.2769 136.846 79.4283C136.594 79.5646 136.387 79.7387 136.225 79.9506C136.069 80.1626 135.953 80.4048 135.877 80.6773C135.802 80.9448 135.764 81.2349 135.764 81.5478V85.7036H133.932ZM140.887 76.2869V74.614H142.711V76.2869H140.887ZM140.887 85.7036V77.5283H142.711V85.7036H140.887ZM149.286 85.9307C148.443 85.9307 147.724 85.7439 147.128 85.3705C146.533 84.992 146.076 84.4773 145.758 83.8263C145.445 83.1753 145.287 82.4385 145.281 81.616C145.287 80.7782 145.451 80.0364 145.773 79.3905C146.101 78.7395 146.566 78.2298 147.166 77.8614C147.767 77.488 148.481 77.3012 149.308 77.3012C150.237 77.3012 151.022 77.5359 151.663 78.0052C152.308 78.4695 152.73 79.1053 152.927 79.9128L151.11 80.4048C150.969 79.9658 150.734 79.6251 150.406 79.3829C150.078 79.1356 149.705 79.012 149.286 79.012C148.811 79.012 148.42 79.1255 148.112 79.3526C147.805 79.5747 147.578 79.8825 147.431 80.2761C147.285 80.6697 147.212 81.1164 147.212 81.616C147.212 82.3931 147.386 83.0214 147.734 83.5008C148.082 83.9802 148.599 84.2199 149.286 84.2199C149.77 84.2199 150.151 84.1089 150.429 83.8869C150.711 83.6648 150.923 83.3444 151.065 82.9255L152.927 83.3418C152.674 84.1745 152.233 84.8154 151.602 85.2645C150.971 85.7086 150.199 85.9307 149.286 85.9307ZM163.78 85.7036C163.24 85.8045 162.71 85.8474 162.19 85.8323C161.675 85.8222 161.214 85.7288 160.805 85.5522C160.396 85.3705 160.086 85.0854 159.874 84.6968C159.687 84.3436 159.589 83.9827 159.579 83.6143C159.568 83.246 159.563 82.8296 159.563 82.3653V75.2574H161.38V82.2594C161.38 82.5874 161.383 82.875 161.388 83.1223C161.398 83.3696 161.451 83.5715 161.547 83.7279C161.728 84.0307 162.018 84.1997 162.417 84.2351C162.816 84.2704 163.27 84.2502 163.78 84.1745V85.7036ZM158.08 78.959V77.5283H163.78V78.959H158.08ZM169.491 85.9307C168.674 85.9307 167.96 85.7465 167.349 85.3781C166.738 85.0097 166.264 84.5025 165.926 83.8566C165.593 83.2056 165.426 82.4587 165.426 81.616C165.426 80.7581 165.598 80.0061 165.941 79.3602C166.284 78.7142 166.761 78.2096 167.372 77.8463C167.982 77.4829 168.689 77.3012 169.491 77.3012C170.314 77.3012 171.03 77.4854 171.641 77.8538C172.252 78.2222 172.726 78.7319 173.064 79.3829C173.402 80.0288 173.571 80.7732 173.571 81.616C173.571 82.4638 173.4 83.2132 173.056 83.8641C172.718 84.5101 172.244 85.0173 171.633 85.3856C171.023 85.749 170.309 85.9307 169.491 85.9307ZM169.491 84.2199C170.218 84.2199 170.758 83.9777 171.111 83.4932C171.464 83.0088 171.641 82.383 171.641 81.616C171.641 80.8237 171.462 80.1929 171.103 79.7235C170.745 79.2492 170.208 79.012 169.491 79.012C169.002 79.012 168.598 79.123 168.28 79.3451C167.967 79.5621 167.735 79.8674 167.584 80.261C167.432 80.6496 167.357 81.1012 167.357 81.616C167.357 82.4082 167.536 83.0416 167.894 83.5159C168.257 83.9853 168.79 84.2199 169.491 84.2199ZM179.784 85.7036V74.8033H186.346V76.6275H181.608V79.3451H185.438V81.1618H181.608V85.7036H179.784ZM190.455 85.9307C189.865 85.9307 189.365 85.8196 188.957 85.5976C188.548 85.3705 188.237 85.0702 188.025 84.6968C187.819 84.3234 187.715 83.9121 187.715 83.463C187.715 83.0693 187.781 82.7161 187.912 82.4032C188.043 82.0853 188.245 81.8128 188.518 81.5857C188.79 81.3535 189.143 81.1643 189.577 81.0179C189.905 80.912 190.289 80.8161 190.728 80.7303C191.172 80.6445 191.651 80.5663 192.166 80.4956C192.686 80.4199 193.228 80.3392 193.793 80.2534L193.142 80.6243C193.148 80.0591 193.021 79.6428 192.764 79.3753C192.507 79.1079 192.073 78.9741 191.462 78.9741C191.094 78.9741 190.738 79.0599 190.395 79.2315C190.052 79.4031 189.812 79.6983 189.676 80.1172L188.01 79.5949C188.212 78.9035 188.596 78.3484 189.161 77.9295C189.731 77.5107 190.498 77.3012 191.462 77.3012C192.189 77.3012 192.827 77.4198 193.377 77.657C193.932 77.8942 194.343 78.2828 194.611 78.8227C194.757 79.1104 194.846 79.4056 194.876 79.7084C194.906 80.0061 194.921 80.3316 194.921 80.6849V85.7036H193.324V83.9323L193.589 84.2199C193.221 84.8104 192.789 85.2443 192.295 85.5219C191.805 85.7944 191.192 85.9307 190.455 85.9307ZM190.819 84.4773C191.232 84.4773 191.586 84.4041 191.878 84.2578C192.171 84.1114 192.403 83.9323 192.575 83.7203C192.751 83.5084 192.87 83.309 192.931 83.1223C193.026 82.8902 193.079 82.6252 193.089 82.3275C193.105 82.0247 193.112 81.78 193.112 81.5932L193.672 81.7598C193.122 81.8456 192.65 81.9213 192.257 81.9869C191.863 82.0525 191.525 82.1156 191.243 82.1761C190.96 82.2316 190.71 82.2947 190.493 82.3653C190.281 82.441 190.102 82.5294 189.956 82.6303C189.809 82.7312 189.696 82.8473 189.615 82.9785C189.539 83.1097 189.502 83.2636 189.502 83.4402C189.502 83.6421 189.552 83.8212 189.653 83.9777C189.754 84.1291 189.9 84.2502 190.092 84.341C190.289 84.4319 190.531 84.4773 190.819 84.4773ZM200.805 85.9307C199.796 85.9307 198.976 85.7036 198.345 85.2494C197.714 84.7952 197.331 84.1568 197.195 83.3343L199.057 83.0466C199.153 83.4503 199.365 83.7683 199.693 84.0004C200.021 84.2325 200.434 84.3486 200.934 84.3486C201.373 84.3486 201.711 84.2628 201.948 84.0912C202.191 83.9146 202.312 83.6749 202.312 83.3721C202.312 83.1854 202.266 83.0365 202.175 82.9255C202.09 82.8094 201.898 82.6984 201.6 82.5924C201.302 82.4865 200.846 82.3527 200.23 82.1912C199.544 82.0096 198.999 81.8153 198.595 81.6084C198.191 81.3964 197.901 81.1466 197.725 80.859C197.548 80.5713 197.46 80.2231 197.46 79.8144C197.46 79.3047 197.593 78.8606 197.861 78.4821C198.128 78.1036 198.502 77.8135 198.981 77.6116C199.46 77.4047 200.026 77.3012 200.677 77.3012C201.312 77.3012 201.875 77.3996 202.365 77.5965C202.859 77.7933 203.258 78.0733 203.561 78.4367C203.863 78.8 204.05 79.2265 204.121 79.716L202.259 80.049C202.213 79.7008 202.054 79.4258 201.782 79.2239C201.514 79.0221 201.156 78.9085 200.707 78.8833C200.278 78.8581 199.932 78.9237 199.67 79.0801C199.407 79.2315 199.276 79.446 199.276 79.7235C199.276 79.88 199.329 80.0137 199.435 80.1247C199.541 80.2357 199.753 80.3468 200.071 80.4578C200.394 80.5688 200.873 80.7051 201.509 80.8666C202.16 81.0331 202.68 81.2249 203.069 81.4419C203.462 81.6538 203.745 81.9086 203.916 82.2064C204.093 82.5041 204.181 82.8649 204.181 83.2888C204.181 84.1114 203.881 84.7574 203.281 85.2267C202.685 85.696 201.86 85.9307 200.805 85.9307ZM212.25 85.7036V81.7673C212.25 81.51 212.233 81.2249 212.197 80.912C212.162 80.5991 212.079 80.2988 211.948 80.0112C211.821 79.7185 211.63 79.4788 211.372 79.2921C211.12 79.1053 210.777 79.012 210.343 79.012C210.111 79.012 209.881 79.0498 209.654 79.1255C209.427 79.2012 209.22 79.3324 209.033 79.5192C208.852 79.7008 208.705 79.9531 208.594 80.2761C208.483 80.594 208.428 81.0028 208.428 81.5024L207.345 81.0407C207.345 80.3442 207.479 79.7134 207.746 79.1482C208.019 78.583 208.418 78.1339 208.942 77.8008C209.467 77.4627 210.113 77.2937 210.88 77.2937C211.486 77.2937 211.985 77.3946 212.379 77.5965C212.773 77.7983 213.086 78.0557 213.318 78.3686C213.55 78.6814 213.721 79.0145 213.832 79.3678C213.943 79.721 214.014 80.0566 214.044 80.3745C214.08 80.6874 214.097 80.9423 214.097 81.1391V85.7036H212.25ZM206.581 85.7036V74.8033H208.208V80.5411H208.428V85.7036H206.581ZM216.981 76.2869V74.614H218.806V76.2869H216.981ZM216.981 85.7036V77.5283H218.806V85.7036H216.981ZM225.44 85.9307C224.623 85.9307 223.909 85.7465 223.298 85.3781C222.687 85.0097 222.213 84.5025 221.875 83.8566C221.542 83.2056 221.375 82.4587 221.375 81.616C221.375 80.7581 221.547 80.0061 221.89 79.3602C222.233 78.7142 222.71 78.2096 223.321 77.8463C223.931 77.4829 224.638 77.3012 225.44 77.3012C226.263 77.3012 226.979 77.4854 227.59 77.8538C228.201 78.2222 228.675 78.7319 229.013 79.3829C229.351 80.0288 229.52 80.7732 229.52 81.616C229.52 82.4638 229.349 83.2132 229.005 83.8641C228.667 84.5101 228.193 85.0173 227.582 85.3856C226.972 85.749 226.258 85.9307 225.44 85.9307ZM225.44 84.2199C226.167 84.2199 226.707 83.9777 227.06 83.4932C227.413 83.0088 227.59 82.383 227.59 81.616C227.59 80.8237 227.411 80.1929 227.052 79.7235C226.694 79.2492 226.157 79.012 225.44 79.012C224.951 79.012 224.547 79.123 224.229 79.3451C223.916 79.5621 223.684 79.8674 223.533 80.261C223.381 80.6496 223.306 81.1012 223.306 81.616C223.306 82.4082 223.485 83.0416 223.843 83.5159C224.206 83.9853 224.739 84.2199 225.44 84.2199ZM237.599 85.7036V81.7673C237.599 81.51 237.582 81.2249 237.546 80.912C237.511 80.5991 237.428 80.2988 237.296 80.0112C237.17 79.7185 236.979 79.4788 236.721 79.2921C236.469 79.1053 236.126 79.012 235.692 79.012C235.46 79.012 235.23 79.0498 235.003 79.1255C234.776 79.2012 234.569 79.3324 234.382 79.5192C234.201 79.7008 234.054 79.9531 233.943 80.2761C233.832 80.594 233.777 81.0028 233.777 81.5024L232.694 81.0407C232.694 80.3442 232.828 79.7134 233.095 79.1482C233.368 78.583 233.767 78.1339 234.291 77.8008C234.816 77.4627 235.462 77.2937 236.229 77.2937C236.835 77.2937 237.334 77.3946 237.728 77.5965C238.122 77.7983 238.434 78.0557 238.667 78.3686C238.899 78.6814 239.07 79.0145 239.181 79.3678C239.292 79.721 239.363 80.0566 239.393 80.3745C239.429 80.6874 239.446 80.9423 239.446 81.1391V85.7036H237.599ZM231.93 85.7036V77.5283H233.557V80.0642H233.777V85.7036H231.93Z" fill="#353535"/>
</svg>
