<svg width="262" height="56" viewBox="0 0 262 56" fill="none" xmlns="http://www.w3.org/2000/svg">
<path fill-rule="evenodd" clip-rule="evenodd" d="M32.1005 3.2784C31.9897 3.09 31.7234 3.07985 31.6137 3.26885C30.0788 5.91137 21.6303 20.4648 20.1155 23.195C19.9527 23.4885 19.9673 23.7897 20.1284 24.0841L32.2751 46.2803C32.4834 46.6612 32.208 47.126 31.7737 47.126H17.6593C17.438 47.126 17.3007 47.3669 17.4135 47.5574L20.6212 52.9737C20.6726 53.0606 20.7661 53.1137 20.867 53.1137H43.3499C43.5691 53.1137 43.7068 52.8772 43.5985 52.6869L27.2331 23.9288C27.1335 23.7539 27.1334 23.5394 27.2326 23.3643L31.376 16.0562C31.5934 15.6729 32.1442 15.6693 32.3665 16.0497L40.2537 29.5491C40.3637 29.7377 40.6359 29.738 40.7465 29.55L44.0651 23.9068C44.1177 23.8174 44.1177 23.7065 44.0651 23.6171L32.1005 3.2784ZM16.2472 30.6497C16.1365 30.46 15.862 30.4611 15.7526 30.6514L3.10283 52.6857C2.99349 52.8763 3.131 53.1137 3.35063 53.1137H9.72705C9.82908 53.1137 9.92339 53.0594 9.97442 52.9711L19.4938 36.498C19.5451 36.4091 19.5449 36.2994 19.4931 36.2109L16.2472 30.6497ZM48.0148 30.6477C47.9054 30.4583 47.6322 30.4569 47.5211 30.6454L44.2499 36.1923C44.1977 36.2811 44.1971 36.3909 44.2482 36.48L53.7636 52.9997C53.8145 53.0883 53.9091 53.1429 54.0111 53.1429H60.4962C60.7162 53.1429 60.8536 52.9049 60.7436 52.7143L48.0148 30.6477Z" fill="#353535"/>
<path fill-rule="evenodd" clip-rule="evenodd" d="M6.24342 47.126L3.09826 52.6874C2.99054 52.878 3.12814 53.1137 3.34697 53.1137H9.72745C9.82928 53.1137 9.92339 53.0594 9.97453 52.9714L13.3682 47.126H6.24342Z" fill="#00C2FF"/>
<path d="M77.0972 38.7714C75.0306 38.7714 73.1637 38.418 71.4972 37.7114C69.8437 36.9914 68.4772 35.9714 67.3972 34.6514C66.3306 33.318 65.6372 31.738 65.3172 29.9114L69.6772 29.2514C70.1172 31.0114 71.0372 32.3849 72.4372 33.3714C73.8372 34.3449 75.4706 34.8314 77.3372 34.8314C78.4972 34.8314 79.5637 34.6514 80.5372 34.2914C81.5106 33.918 82.2906 33.3914 82.8772 32.7114C83.4772 32.018 83.7772 31.1914 83.7772 30.2314C83.7772 29.7114 83.6837 29.2514 83.4972 28.8514C83.3237 28.4514 83.0772 28.1048 82.7572 27.8114C82.4506 27.5048 82.0706 27.2448 81.6172 27.0314C81.1772 26.8048 80.6906 26.6114 80.1572 26.4514L72.7772 24.2714C72.0572 24.0581 71.3237 23.7848 70.5772 23.4514C69.8306 23.1048 69.1437 22.6581 68.5172 22.1114C67.9037 21.5514 67.4037 20.8648 67.0172 20.0514C66.6306 19.2248 66.4372 18.2248 66.4372 17.0514C66.4372 15.2781 66.8906 13.7781 67.7972 12.5514C68.7172 11.3114 69.9572 10.3781 71.5172 9.75142C73.0772 9.11142 74.8237 8.79142 76.7572 8.79142C78.7037 8.81808 80.4437 9.16477 81.9772 9.83142C83.5237 10.4981 84.8037 11.4581 85.8172 12.7114C86.8437 13.9514 87.5506 15.4581 87.9372 17.2314L83.4572 17.9914C83.2572 16.9114 82.8306 15.9848 82.1772 15.2114C81.5237 14.4248 80.7237 13.8248 79.7772 13.4114C78.8306 12.9848 77.8037 12.7648 76.6972 12.7514C75.6306 12.7248 74.6506 12.8848 73.7572 13.2314C72.8772 13.5781 72.1706 14.0648 71.6372 14.6914C71.1172 15.3181 70.8572 16.0381 70.8572 16.8514C70.8572 17.6514 71.0906 18.2981 71.5572 18.7914C72.0237 19.2848 72.5972 19.6781 73.2772 19.9714C73.9706 20.2514 74.6572 20.4848 75.3372 20.6714L80.6572 22.1714C81.3237 22.3581 82.0772 22.6114 82.9172 22.9314C83.7706 23.2381 84.5906 23.6714 85.3772 24.2314C86.1772 24.7914 86.8372 25.5381 87.3572 26.4714C87.8772 27.3914 88.1372 28.5514 88.1372 29.9514C88.1372 31.4049 87.8437 32.6849 87.2572 33.7914C86.6706 34.8849 85.8637 35.8049 84.8372 36.5514C83.8237 37.2849 82.6506 37.838 81.3172 38.2114C79.9837 38.5849 78.5772 38.7714 77.0972 38.7714ZM104.419 38.7714C101.539 38.7714 99.086 38.1448 97.0595 36.8914C95.0326 35.6249 93.4795 33.8649 92.3995 31.6114C91.3326 29.358 90.7995 26.7448 90.7995 23.7714C90.7995 20.7981 91.3326 18.1848 92.3995 15.9314C93.4795 13.6781 95.0326 11.9248 97.0595 10.6714C99.086 9.40477 101.539 8.77142 104.419 8.77142C107.286 8.77142 109.733 9.40477 111.759 10.6714C113.799 11.9248 115.353 13.6781 116.419 15.9314C117.486 18.1848 118.019 20.7981 118.019 23.7714C118.019 26.7448 117.486 29.358 116.419 31.6114C115.353 33.8649 113.799 35.6249 111.759 36.8914C109.733 38.1448 107.286 38.7714 104.419 38.7714ZM104.419 34.7914C106.459 34.818 108.153 34.3714 109.499 33.4514C110.859 32.518 111.879 31.2249 112.559 29.5714C113.239 27.9048 113.579 25.9714 113.579 23.7714C113.579 21.5714 113.239 19.6514 112.559 18.0114C111.879 16.3581 110.859 15.0714 109.499 14.1514C108.153 13.2314 106.459 12.7648 104.419 12.7514C102.379 12.7248 100.679 13.1714 99.3195 14.0914C97.9726 15.0114 96.9595 16.3048 96.2795 17.9714C95.5995 19.6381 95.2526 21.5714 95.2395 23.7714C95.226 25.9714 95.5595 27.8981 96.2395 29.5514C96.9195 31.1914 97.9395 32.4714 99.2995 33.3914C100.673 34.3114 102.379 34.778 104.419 34.7914ZM122.009 38.1714V9.37142H133.649C133.929 9.37142 134.275 9.38477 134.689 9.41142C135.102 9.42477 135.495 9.46477 135.869 9.53142C137.469 9.78477 138.802 10.3314 139.869 11.1714C140.949 12.0114 141.755 13.0714 142.289 14.3514C142.822 15.6314 143.089 17.0448 143.089 18.5914C143.089 20.8848 142.502 22.8648 141.329 24.5314C140.155 26.1848 138.395 27.2181 136.049 27.6314L134.349 27.8314H126.189V38.1714H122.009ZM138.849 38.1714L133.169 26.4514L137.389 25.3714L143.629 38.1714H138.849ZM126.189 23.8714H133.489C133.755 23.8714 134.049 23.8581 134.369 23.8314C134.702 23.8048 135.015 23.7581 135.309 23.6914C136.162 23.4914 136.849 23.1248 137.369 22.5914C137.889 22.0448 138.262 21.4181 138.489 20.7114C138.715 20.0048 138.829 19.2981 138.829 18.5914C138.829 17.8848 138.715 17.1848 138.489 16.4914C138.262 15.7848 137.889 15.1648 137.369 14.6314C136.849 14.0848 136.162 13.7114 135.309 13.5114C135.015 13.4314 134.702 13.3781 134.369 13.3514C134.049 13.3248 133.755 13.3114 133.489 13.3114H126.189V23.8714ZM158.464 38.7714C156.398 38.7714 154.531 38.418 152.864 37.7114C151.211 36.9914 149.844 35.9714 148.764 34.6514C147.698 33.318 147.004 31.738 146.684 29.9114L151.044 29.2514C151.484 31.0114 152.404 32.3849 153.804 33.3714C155.204 34.3449 156.838 34.8314 158.704 34.8314C159.864 34.8314 160.931 34.6514 161.904 34.2914C162.878 33.918 163.658 33.3914 164.244 32.7114C164.844 32.018 165.144 31.1914 165.144 30.2314C165.144 29.7114 165.051 29.2514 164.864 28.8514C164.691 28.4514 164.444 28.1048 164.124 27.8114C163.818 27.5048 163.438 27.2448 162.984 27.0314C162.544 26.8048 162.058 26.6114 161.524 26.4514L154.144 24.2714C153.424 24.0581 152.691 23.7848 151.944 23.4514C151.198 23.1048 150.511 22.6581 149.884 22.1114C149.271 21.5514 148.771 20.8648 148.384 20.0514C147.998 19.2248 147.804 18.2248 147.804 17.0514C147.804 15.2781 148.258 13.7781 149.164 12.5514C150.084 11.3114 151.324 10.3781 152.884 9.75142C154.444 9.11142 156.191 8.79142 158.124 8.79142C160.071 8.81808 161.811 9.16477 163.344 9.83142C164.891 10.4981 166.171 11.4581 167.184 12.7114C168.211 13.9514 168.918 15.4581 169.304 17.2314L164.824 17.9914C164.624 16.9114 164.198 15.9848 163.544 15.2114C162.891 14.4248 162.091 13.8248 161.144 13.4114C160.198 12.9848 159.171 12.7648 158.064 12.7514C156.998 12.7248 156.018 12.8848 155.124 13.2314C154.244 13.5781 153.538 14.0648 153.004 14.6914C152.484 15.3181 152.224 16.0381 152.224 16.8514C152.224 17.6514 152.458 18.2981 152.924 18.7914C153.391 19.2848 153.964 19.6781 154.644 19.9714C155.338 20.2514 156.024 20.4848 156.704 20.6714L162.024 22.1714C162.691 22.3581 163.444 22.6114 164.284 22.9314C165.138 23.2381 165.958 23.6714 166.744 24.2314C167.544 24.7914 168.204 25.5381 168.724 26.4714C169.244 27.3914 169.504 28.5514 169.504 29.9514C169.504 31.4049 169.211 32.6849 168.624 33.7914C168.038 34.8849 167.231 35.8049 166.204 36.5514C165.191 37.2849 164.018 37.838 162.684 38.2114C161.351 38.5849 159.944 38.7714 158.464 38.7714ZM171.767 38.1714L181.127 9.37142H187.147L196.507 38.1714H192.167L183.547 11.8914H184.627L176.107 38.1714H171.767ZM176.627 31.6714V27.7514H191.667V31.6714H176.627ZM200.495 38.1714V9.37142H204.675V34.2314H217.715V38.1714H200.495ZM221.51 38.1714V9.37142H225.69V34.2314H238.73V38.1714H221.51ZM245.081 38.1714V26.2714L235.342 9.37142H240.222L247.202 21.4714L254.182 9.37142H259.062L249.322 26.2714V38.1714H245.081Z" fill="#353535"/>
<path d="M65.72 51.9429V44.5371H70.1789V45.7766H66.9594V47.6229H69.5617V48.8571H66.9594V51.9429H65.72ZM72.9706 52.0971C72.5694 52.0971 72.23 52.0217 71.9523 51.8709C71.6746 51.7166 71.4637 51.5126 71.3197 51.2589C71.1792 51.0051 71.1089 50.7257 71.1089 50.4206C71.1089 50.1531 71.1534 49.9131 71.2426 49.7006C71.3317 49.4846 71.4689 49.2994 71.654 49.1451C71.8392 48.9874 72.0792 48.8589 72.374 48.7594C72.5969 48.6874 72.8574 48.6223 73.1557 48.564C73.4574 48.5057 73.7832 48.4526 74.1329 48.4046C74.486 48.3531 74.8546 48.2983 75.2386 48.24L74.7963 48.492C74.7997 48.108 74.714 47.8251 74.5392 47.6434C74.3643 47.4617 74.0694 47.3709 73.6546 47.3709C73.4043 47.3709 73.1626 47.4291 72.9295 47.5457C72.6963 47.6623 72.5334 47.8629 72.4409 48.1474L71.3095 47.7926C71.4466 47.3229 71.7072 46.9457 72.0912 46.6611C72.4786 46.3766 72.9997 46.2343 73.6546 46.2343C74.1483 46.2343 74.582 46.3149 74.9557 46.476C75.3329 46.6371 75.6123 46.9011 75.794 47.268C75.8935 47.4634 75.9535 47.664 75.974 47.8697C75.9946 48.072 76.0049 48.2931 76.0049 48.5331V51.9429H74.9197V50.7394L75.0997 50.9349C74.8495 51.336 74.5563 51.6309 74.2203 51.8194C73.8877 52.0046 73.4712 52.0971 72.9706 52.0971ZM73.2175 51.1097C73.4986 51.1097 73.7386 51.06 73.9375 50.9606C74.1363 50.8611 74.294 50.7394 74.4106 50.5954C74.5306 50.4514 74.6112 50.316 74.6523 50.1891C74.7175 50.0314 74.7535 49.8514 74.7603 49.6491C74.7706 49.4434 74.7757 49.2771 74.7757 49.1503L75.1563 49.2634C74.7826 49.3217 74.462 49.3731 74.1946 49.4177C73.9272 49.4623 73.6974 49.5051 73.5054 49.5463C73.3134 49.584 73.1437 49.6269 72.9963 49.6749C72.8523 49.7263 72.7306 49.7863 72.6312 49.8549C72.5317 49.9234 72.4546 50.0023 72.3997 50.0914C72.3483 50.1806 72.3226 50.2851 72.3226 50.4051C72.3226 50.5423 72.3569 50.664 72.4254 50.7703C72.494 50.8731 72.5935 50.9554 72.7237 51.0171C72.8575 51.0789 73.022 51.1097 73.2175 51.1097ZM80.5272 52.0971C79.9855 52.0971 79.5312 51.9686 79.1643 51.7114C78.7975 51.4543 78.5215 51.1046 78.3363 50.6623C78.1512 50.2166 78.0586 49.7177 78.0586 49.1657C78.0586 48.6069 78.1512 48.1063 78.3363 47.664C78.5215 47.2217 78.7923 46.8737 79.1489 46.62C79.5089 46.3629 79.9529 46.2343 80.4809 46.2343C81.0055 46.2343 81.4597 46.3629 81.8437 46.62C82.2312 46.8737 82.5312 47.2217 82.7437 47.664C82.9563 48.1029 83.0626 48.6034 83.0626 49.1657C83.0626 49.7211 82.958 50.22 82.7489 50.6623C82.5397 51.1046 82.2449 51.4543 81.8643 51.7114C81.4837 51.9686 81.038 52.0971 80.5272 52.0971ZM77.8477 51.9429V44.5371H79.0974V48.0446H78.9432V51.9429H77.8477ZM80.3369 50.9863C80.6592 50.9863 80.9249 50.9057 81.134 50.7446C81.3432 50.5834 81.4974 50.3657 81.5969 50.0914C81.6997 49.8137 81.7512 49.5051 81.7512 49.1657C81.7512 48.8297 81.6997 48.5246 81.5969 48.2503C81.494 47.9726 81.3346 47.7531 81.1186 47.592C80.9026 47.4274 80.6283 47.3451 80.2957 47.3451C79.9803 47.3451 79.7232 47.4223 79.5243 47.5766C79.3255 47.7274 79.178 47.94 79.082 48.2143C78.9895 48.4851 78.9432 48.8023 78.9432 49.1657C78.9432 49.5257 78.9895 49.8429 79.082 50.1171C79.178 50.3914 79.3272 50.6057 79.5295 50.76C79.7352 50.9109 80.0043 50.9863 80.3369 50.9863ZM84.7103 51.9429V46.3886H85.8057V47.7411L85.672 47.5663C85.7406 47.3811 85.8315 47.2131 85.9446 47.0623C86.0612 46.908 86.2 46.7811 86.3612 46.6817C86.4983 46.5891 86.6492 46.5171 86.8137 46.4657C86.9817 46.4109 87.1532 46.3783 87.328 46.368C87.5029 46.3543 87.6726 46.3611 87.8372 46.3886V47.5457C87.6726 47.4977 87.4823 47.4823 87.2663 47.4994C87.0537 47.5166 86.8617 47.5766 86.6903 47.6794C86.5189 47.772 86.3783 47.8903 86.2686 48.0343C86.1623 48.1783 86.0835 48.3429 86.032 48.528C85.9806 48.7097 85.9549 48.9069 85.9549 49.1194V51.9429H84.7103ZM89.4357 45.5451V44.4086H90.6752V45.5451H89.4357ZM89.4357 51.9429V46.3886H90.6752V51.9429H89.4357ZM95.142 52.0971C94.5695 52.0971 94.0809 51.9703 93.6763 51.7166C93.2717 51.4594 92.9615 51.1097 92.7455 50.6674C92.5329 50.2251 92.4249 49.7246 92.4215 49.1657C92.4249 48.5966 92.5363 48.0926 92.7557 47.6537C92.9786 47.2114 93.294 46.8651 93.702 46.6149C94.11 46.3611 94.5952 46.2343 95.1575 46.2343C95.7883 46.2343 96.3215 46.3937 96.7569 46.7126C97.1957 47.028 97.482 47.46 97.6157 48.0086L96.3815 48.3429C96.2855 48.0446 96.126 47.8131 95.9032 47.6486C95.6803 47.4806 95.4266 47.3966 95.142 47.3966C94.8197 47.3966 94.554 47.4737 94.3449 47.628C94.1357 47.7789 93.9815 47.988 93.882 48.2554C93.7826 48.5229 93.7329 48.8263 93.7329 49.1657C93.7329 49.6937 93.8512 50.1206 94.0877 50.4463C94.3243 50.772 94.6757 50.9349 95.142 50.9349C95.4712 50.9349 95.73 50.8594 95.9186 50.7086C96.1106 50.5577 96.2546 50.34 96.3506 50.0554L97.6157 50.3383C97.4443 50.904 97.1443 51.3394 96.7157 51.6446C96.2872 51.9463 95.7626 52.0971 95.142 52.0971ZM104.989 51.9429C104.623 52.0114 104.263 52.0406 103.909 52.0303C103.56 52.0234 103.246 51.96 102.968 51.84C102.691 51.7166 102.48 51.5229 102.336 51.2589C102.209 51.0189 102.142 50.7737 102.135 50.5234C102.128 50.2731 102.125 49.9903 102.125 49.6749V44.8457H103.359V49.6029C103.359 49.8257 103.361 50.0211 103.364 50.1891C103.371 50.3571 103.407 50.4943 103.472 50.6006C103.596 50.8063 103.793 50.9211 104.064 50.9451C104.335 50.9691 104.643 50.9554 104.989 50.904V51.9429ZM101.117 47.3606V46.3886H104.989V47.3606H101.117ZM108.87 52.0971C108.315 52.0971 107.829 51.972 107.415 51.7217C107 51.4714 106.677 51.1269 106.448 50.688C106.221 50.2457 106.108 49.7383 106.108 49.1657C106.108 48.5829 106.225 48.072 106.458 47.6331C106.691 47.1943 107.015 46.8514 107.43 46.6046C107.845 46.3577 108.325 46.2343 108.87 46.2343C109.429 46.2343 109.916 46.3594 110.331 46.6097C110.745 46.86 111.068 47.2063 111.297 47.6486C111.527 48.0874 111.642 48.5931 111.642 49.1657C111.642 49.7417 111.525 50.2509 111.292 50.6931C111.063 51.132 110.74 51.4766 110.325 51.7268C109.911 51.9737 109.425 52.0971 108.87 52.0971ZM108.87 50.9349C109.364 50.9349 109.731 50.7703 109.971 50.4411C110.211 50.112 110.331 49.6869 110.331 49.1657C110.331 48.6274 110.209 48.1989 109.965 47.88C109.722 47.5577 109.357 47.3966 108.87 47.3966C108.537 47.3966 108.263 47.472 108.047 47.6229C107.835 47.7703 107.677 47.9777 107.574 48.2451C107.471 48.5091 107.42 48.816 107.42 49.1657C107.42 49.704 107.541 50.1343 107.785 50.4566C108.032 50.7754 108.393 50.9349 108.87 50.9349ZM115.863 51.9429V44.5371H120.322V45.7766H117.102V47.6229H119.705V48.8571H117.102V51.9429H115.863ZM123.113 52.0971C122.712 52.0971 122.373 52.0217 122.095 51.8709C121.817 51.7166 121.607 51.5126 121.463 51.2589C121.322 51.0051 121.252 50.7257 121.252 50.4206C121.252 50.1531 121.296 49.9131 121.385 49.7006C121.475 49.4846 121.612 49.2994 121.797 49.1451C121.982 48.9874 122.222 48.8589 122.517 48.7594C122.74 48.6874 123 48.6223 123.299 48.564C123.6 48.5057 123.926 48.4526 124.276 48.4046C124.629 48.3531 124.997 48.2983 125.381 48.24L124.939 48.492C124.943 48.108 124.857 47.8251 124.682 47.6434C124.507 47.4617 124.212 47.3709 123.797 47.3709C123.547 47.3709 123.305 47.4291 123.072 47.5457C122.839 47.6623 122.676 47.8629 122.584 48.1474L121.452 47.7926C121.589 47.3229 121.85 46.9457 122.234 46.6611C122.621 46.3766 123.143 46.2343 123.797 46.2343C124.291 46.2343 124.725 46.3149 125.099 46.476C125.476 46.6371 125.755 46.9011 125.937 47.268C126.036 47.4634 126.096 47.664 126.117 47.8697C126.137 48.072 126.148 48.2931 126.148 48.5331V51.9429H125.063V50.7394L125.243 50.9349C124.992 51.336 124.699 51.6309 124.363 51.8194C124.031 52.0046 123.614 52.0971 123.113 52.0971ZM123.36 51.1097C123.641 51.1097 123.881 51.06 124.08 50.9606C124.279 50.8611 124.437 50.7394 124.553 50.5954C124.673 50.4514 124.754 50.316 124.795 50.1891C124.86 50.0314 124.896 49.8514 124.903 49.6491C124.913 49.4434 124.919 49.2771 124.919 49.1503L125.299 49.2634C124.925 49.3217 124.605 49.3731 124.337 49.4177C124.07 49.4623 123.84 49.5051 123.648 49.5463C123.456 49.584 123.287 49.6269 123.139 49.6749C122.995 49.7263 122.873 49.7863 122.774 49.8549C122.675 49.9234 122.597 50.0023 122.543 50.0914C122.491 50.1806 122.465 50.2851 122.465 50.4051C122.465 50.5423 122.5 50.664 122.568 50.7703C122.637 50.8731 122.736 50.9554 122.867 51.0171C123 51.0789 123.165 51.1097 123.36 51.1097ZM130.145 52.0971C129.46 52.0971 128.903 51.9428 128.474 51.6343C128.045 51.3257 127.785 50.892 127.692 50.3331L128.957 50.1377C129.023 50.412 129.167 50.628 129.389 50.7857C129.612 50.9434 129.893 51.0223 130.233 51.0223C130.531 51.0223 130.761 50.964 130.922 50.8474C131.087 50.7274 131.169 50.5646 131.169 50.3589C131.169 50.232 131.138 50.1309 131.076 50.0554C131.018 49.9766 130.888 49.9011 130.685 49.8291C130.483 49.7571 130.173 49.6663 129.755 49.5566C129.288 49.4331 128.918 49.3011 128.644 49.1606C128.369 49.0166 128.172 48.8469 128.052 48.6514C127.932 48.456 127.872 48.2194 127.872 47.9417C127.872 47.5954 127.963 47.2937 128.145 47.0366C128.327 46.7794 128.58 46.5823 128.906 46.4451C129.232 46.3046 129.616 46.2343 130.058 46.2343C130.49 46.2343 130.872 46.3011 131.205 46.4349C131.541 46.5686 131.812 46.7589 132.017 47.0057C132.223 47.2526 132.35 47.5423 132.398 47.8749L131.133 48.1011C131.102 47.8646 130.994 47.6777 130.809 47.5406C130.627 47.4034 130.384 47.3263 130.079 47.3091C129.787 47.292 129.552 47.3366 129.374 47.4429C129.196 47.5457 129.107 47.6914 129.107 47.88C129.107 47.9863 129.143 48.0771 129.215 48.1526C129.287 48.228 129.431 48.3034 129.647 48.3789C129.866 48.4543 130.192 48.5469 130.624 48.6566C131.066 48.7697 131.419 48.9 131.683 49.0474C131.951 49.1914 132.143 49.3646 132.259 49.5669C132.379 49.7691 132.439 50.0143 132.439 50.3023C132.439 50.8611 132.235 51.3 131.827 51.6189C131.423 51.9377 130.862 52.0971 130.145 52.0971ZM137.921 51.9429V49.2686C137.921 49.0937 137.909 48.9 137.885 48.6874C137.861 48.4749 137.805 48.2709 137.716 48.0754C137.63 47.8766 137.5 47.7137 137.325 47.5869C137.153 47.46 136.92 47.3966 136.625 47.3966C136.468 47.3966 136.312 47.4223 136.157 47.4737C136.003 47.5251 135.863 47.6143 135.736 47.7411C135.612 47.8646 135.513 48.036 135.437 48.2554C135.362 48.4714 135.324 48.7491 135.324 49.0886L134.589 48.7749C134.589 48.3017 134.68 47.8731 134.861 47.4891C135.047 47.1051 135.317 46.8 135.674 46.5737C136.031 46.344 136.469 46.2291 136.991 46.2291C137.402 46.2291 137.741 46.2977 138.009 46.4349C138.276 46.572 138.489 46.7469 138.647 46.9594C138.804 47.172 138.921 47.3983 138.996 47.6383C139.072 47.8783 139.12 48.1063 139.14 48.3223C139.164 48.5349 139.176 48.708 139.176 48.8417V51.9429H137.921ZM134.069 51.9429V44.5371H135.175V48.4354H135.324V51.9429H134.069ZM141.136 45.5451V44.4086H142.375V45.5451H141.136ZM141.136 51.9429V46.3886H142.375V51.9429H141.136ZM146.883 52.0971C146.327 52.0971 145.842 51.972 145.427 51.7217C145.013 51.4714 144.69 51.1269 144.461 50.688C144.234 50.2457 144.121 49.7383 144.121 49.1657C144.121 48.5829 144.238 48.072 144.471 47.6331C144.704 47.1943 145.028 46.8514 145.443 46.6046C145.858 46.3577 146.338 46.2343 146.883 46.2343C147.442 46.2343 147.929 46.3594 148.343 46.6097C148.758 46.86 149.081 47.2063 149.31 47.6486C149.54 48.0874 149.655 48.5931 149.655 49.1657C149.655 49.7417 149.538 50.2509 149.305 50.6931C149.075 51.132 148.753 51.4766 148.338 51.7268C147.923 51.9737 147.438 52.0971 146.883 52.0971ZM146.883 50.9349C147.377 50.9349 147.743 50.7703 147.983 50.4411C148.223 50.112 148.343 49.6869 148.343 49.1657C148.343 48.6274 148.222 48.1989 147.978 47.88C147.735 47.5577 147.37 47.3966 146.883 47.3966C146.55 47.3966 146.276 47.472 146.06 47.6229C145.847 47.7703 145.69 47.9777 145.587 48.2451C145.484 48.5091 145.433 48.816 145.433 49.1657C145.433 49.704 145.554 50.1343 145.798 50.4566C146.045 50.7754 146.406 50.9349 146.883 50.9349ZM155.144 51.9429V49.2686C155.144 49.0937 155.132 48.9 155.108 48.6874C155.084 48.4749 155.027 48.2709 154.938 48.0754C154.853 47.8766 154.722 47.7137 154.547 47.5869C154.376 47.46 154.143 47.3966 153.848 47.3966C153.69 47.3966 153.534 47.4223 153.38 47.4737C153.226 47.5251 153.085 47.6143 152.958 47.7411C152.835 47.8646 152.735 48.036 152.66 48.2554C152.585 48.4714 152.547 48.7491 152.547 49.0886L151.811 48.7749C151.811 48.3017 151.902 47.8731 152.084 47.4891C152.269 47.1051 152.54 46.8 152.897 46.5737C153.253 46.344 153.692 46.2291 154.213 46.2291C154.625 46.2291 154.964 46.2977 155.231 46.4349C155.499 46.572 155.711 46.7469 155.869 46.9594C156.027 47.172 156.143 47.3983 156.219 47.6383C156.294 47.8783 156.342 48.1063 156.363 48.3223C156.387 48.5349 156.399 48.708 156.399 48.8417V51.9429H155.144ZM151.292 51.9429V46.3886H152.398V48.1114H152.547V51.9429H151.292Z" fill="#353535"/>
</svg>
