<svg width="18" height="18" viewBox="0 0 18 18" fill="none" xmlns="http://www.w3.org/2000/svg">
<path d="M0.66997 17.3333L1.79664 13.1933C1.05425 11.9207 0.664217 10.4733 0.666637 9C0.666637 4.3975 4.39747 0.666667 8.99997 0.666667C13.6025 0.666667 17.3333 4.3975 17.3333 9C17.3333 13.6025 13.6025 17.3333 8.99997 17.3333C7.52729 17.3357 6.08052 16.946 4.8083 16.2042L0.66997 17.3333ZM5.99247 5.09C5.88486 5.09668 5.7797 5.12503 5.6833 5.17333C5.59291 5.22453 5.51038 5.28852 5.4383 5.36333C5.3383 5.4575 5.28164 5.53917 5.2208 5.61833C4.91281 6.01916 4.74715 6.51118 4.74997 7.01667C4.75164 7.425 4.8583 7.8225 5.02497 8.19417C5.3658 8.94584 5.92664 9.74167 6.66747 10.4792C6.8458 10.6567 7.01997 10.835 7.20747 11.0008C8.12696 11.8104 9.22268 12.3942 10.4075 12.7058L10.8816 12.7783C11.0358 12.7867 11.19 12.775 11.345 12.7675C11.5877 12.755 11.8246 12.6893 12.0391 12.575C12.1775 12.5017 12.2425 12.465 12.3583 12.3917C12.3583 12.3917 12.3941 12.3683 12.4625 12.3167C12.575 12.2333 12.6441 12.1742 12.7375 12.0767C12.8066 12.005 12.8666 11.9208 12.9125 11.825C12.9775 11.6892 13.0425 11.43 13.0691 11.2142C13.0891 11.0492 13.0833 10.9592 13.0808 10.9033C13.0775 10.8142 13.0033 10.7217 12.9225 10.6825L12.4375 10.465C12.4375 10.465 11.7125 10.1492 11.27 9.9475C11.2233 9.92716 11.1733 9.91558 11.1225 9.91333C11.0655 9.90748 11.0078 9.91389 10.9535 9.93215C10.8992 9.9504 10.8494 9.98007 10.8075 10.0192V10.0175C10.8033 10.0175 10.7475 10.065 10.145 10.795C10.1104 10.8415 10.0628 10.8766 10.0081 10.8959C9.95352 10.9152 9.8944 10.9178 9.8383 10.9033C9.78401 10.8888 9.73082 10.8704 9.67914 10.8483C9.5758 10.805 9.53997 10.7883 9.46914 10.7575L9.46497 10.7558C8.98823 10.5477 8.54682 10.2665 8.15664 9.9225C8.05164 9.83084 7.95414 9.73083 7.85414 9.63417C7.52629 9.3202 7.24057 8.96501 7.00414 8.5775L6.95497 8.49833C6.91966 8.44514 6.8911 8.38775 6.86997 8.3275C6.8383 8.205 6.9208 8.10667 6.9208 8.10667C6.9208 8.10667 7.1233 7.885 7.21747 7.765C7.29588 7.66527 7.36903 7.56152 7.43664 7.45417C7.53497 7.29584 7.5658 7.13333 7.51414 7.0075C7.2808 6.4375 7.03914 5.87 6.7908 5.30667C6.74164 5.195 6.5958 5.115 6.4633 5.09917C6.4183 5.09417 6.3733 5.08917 6.3283 5.08583C6.21639 5.08027 6.10425 5.08139 5.99247 5.08917V5.09Z" fill="white"/>
</svg>
