<svg width="33" height="32" viewBox="0 0 33 32" fill="none" xmlns="http://www.w3.org/2000/svg">
<path d="M19.8533 6.66667L23.328 3.19067C23.4518 3.0667 23.5989 2.96836 23.7607 2.90126C23.9226 2.83416 24.0961 2.79962 24.2713 2.79962C24.4466 2.79962 24.6201 2.83416 24.7819 2.90126C24.9438 2.96836 25.0908 3.0667 25.2147 3.19067L30.8707 8.848C31.1206 9.09804 31.261 9.43712 31.261 9.79067C31.261 10.1442 31.1206 10.4833 30.8707 10.7333L25.8333 15.7707V28C25.8333 28.3536 25.6929 28.6928 25.4428 28.9428C25.1928 29.1929 24.8536 29.3333 24.5 29.3333H8.5C8.14638 29.3333 7.80724 29.1929 7.55719 28.9428C7.30714 28.6928 7.16667 28.3536 7.16667 28V15.7707L2.12933 10.7333C1.87937 10.4833 1.73895 10.1442 1.73895 9.79067C1.73895 9.43712 1.87937 9.09804 2.12933 8.848L7.78533 3.19067C7.90916 3.0667 8.05621 2.96836 8.21808 2.90126C8.37994 2.83416 8.55345 2.79962 8.72867 2.79962C8.90389 2.79962 9.07739 2.83416 9.23925 2.90126C9.40112 2.96836 9.54817 3.0667 9.672 3.19067L13.1467 6.66667H19.8533ZM20.9573 9.33334H12.0427L8.72933 6.02L4.95733 9.79067L9.83333 14.6667V26.6667H23.1667V14.6667L28.0427 9.79067L24.2707 6.02L20.9573 9.33334Z" fill="#00C2FF"/>
</svg>
