<svg width="26" height="30" viewBox="0 0 26 30" fill="none" xmlns="http://www.w3.org/2000/svg">
<path d="M14.1667 18.0026V20.7893C12.9599 20.3627 11.6684 20.2318 10.4006 20.4077C9.13275 20.5836 7.92564 21.0612 6.88062 21.8003C5.83559 22.5393 4.98317 23.5184 4.39492 24.6552C3.80668 25.792 3.4998 27.0533 3.50004 28.3333L0.833374 28.332C0.832961 26.7038 1.20527 25.0972 1.92177 23.6352C2.63828 22.1732 3.67996 20.8946 4.967 19.8974C6.25404 18.9002 7.75227 18.2108 9.34691 17.8822C10.9415 17.5535 12.5903 17.5943 14.1667 18.0013V18.0026ZM11.5 16.3333C7.08004 16.3333 3.50004 12.7533 3.50004 8.33331C3.50004 3.91331 7.08004 0.333313 11.5 0.333313C15.92 0.333313 19.5 3.91331 19.5 8.33331C19.5 12.7533 15.92 16.3333 11.5 16.3333ZM11.5 13.6666C14.4467 13.6666 16.8334 11.28 16.8334 8.33331C16.8334 5.38665 14.4467 2.99998 11.5 2.99998C8.55337 2.99998 6.16671 5.38665 6.16671 8.33331C6.16671 11.28 8.55337 13.6666 11.5 13.6666ZM19.224 25.552L23.9374 20.8386L25.824 22.724L19.224 29.324L14.5094 24.6093L16.396 22.724L19.2227 25.552H19.224Z" fill="#00C2FF"/>
</svg>
