<svg width="24" height="29" viewBox="0 0 24 29" fill="none" xmlns="http://www.w3.org/2000/svg">
<path d="M0 8.33334L11.26 0.826678C11.4791 0.680492 11.7366 0.602478 12 0.602478C12.2634 0.602478 12.5209 0.680492 12.74 0.826678L24 8.33334V27C24 27.3536 23.8595 27.6928 23.6095 27.9428C23.3594 28.1929 23.0203 28.3333 22.6667 28.3333H1.33333C0.979711 28.3333 0.640573 28.1929 0.390524 27.9428C0.140476 27.6928 0 27.3536 0 27V8.33334ZM2.66667 9.76001V25.6667H21.3333V9.76001L12 3.53868L2.66667 9.76001ZM6.66667 20.3333H17.3333V23H6.66667V20.3333ZM6.66667 16.3333H17.3333V19H6.66667V16.3333ZM12 13.6667C11.2928 13.6667 10.6145 13.3857 10.1144 12.8856C9.61429 12.3855 9.33333 11.7073 9.33333 11C9.33333 10.2928 9.61429 9.61449 10.1144 9.11439C10.6145 8.6143 11.2928 8.33334 12 8.33334C12.7072 8.33334 13.3855 8.6143 13.8856 9.11439C14.3857 9.61449 14.6667 10.2928 14.6667 11C14.6667 11.7073 14.3857 12.3855 13.8856 12.8856C13.3855 13.3857 12.7072 13.6667 12 13.6667Z" fill="#00C2FF"/>
</svg>
