<svg width="27" height="24" viewBox="0 0 27 24" fill="none" xmlns="http://www.w3.org/2000/svg">
<path d="M1.50002 9.33334H0.166687V1.33734C0.166687 0.598669 0.773354 2.92879e-06 1.48935 2.92879e-06H25.5107C25.6857 -0.00036578 25.8591 0.0340819 26.0207 0.101341C26.1823 0.168601 26.3289 0.267329 26.452 0.39178C26.5751 0.516231 26.6722 0.663919 26.7376 0.82625C26.8031 0.988581 26.8357 1.16231 26.8334 1.33734V9.33334H25.5V22.668C25.5005 22.8424 25.4667 23.0152 25.4005 23.1765C25.3342 23.3378 25.2368 23.4845 25.1139 23.6082C24.9909 23.7319 24.8448 23.8302 24.6839 23.8974C24.523 23.9646 24.3504 23.9995 24.176 24H2.82402C2.64962 23.9995 2.47704 23.9646 2.31612 23.8974C2.1552 23.8302 2.0091 23.7319 1.88615 23.6082C1.76321 23.4845 1.66583 23.3378 1.59958 23.1765C1.53332 23.0152 1.49949 22.8424 1.50002 22.668V9.33334ZM22.8334 9.33334H4.16669V21.3333H22.8334V9.33334ZM2.83335 2.66667V6.66667H24.1667V2.66667H2.83335ZM9.50002 12H17.5V14.6667H9.50002V12Z" fill="#00C2FF"/>
</svg>
