<svg width="31" height="30" viewBox="0 0 31 30" fill="none" xmlns="http://www.w3.org/2000/svg">
<path d="M18 1.36806e-06C20.745 -0.00130883 23.4074 0.938501 25.5433 2.66269C27.6792 4.38688 29.1594 6.79121 29.737 9.4747C30.3147 12.1582 29.9549 14.9586 28.7176 17.4089C27.4803 19.8592 25.4404 21.8113 22.938 22.9395C22.1381 24.7079 20.9213 26.2558 19.3918 27.4506C17.8623 28.6455 16.0658 29.4515 14.1565 29.7995C12.2471 30.1476 10.2818 30.0273 8.42906 29.449C6.57636 28.8707 4.89156 27.8517 3.51918 26.4793C2.14679 25.1069 1.12776 23.4222 0.54948 21.5695C-0.0287972 19.7168 -0.149063 17.7514 0.198996 15.8421C0.547056 13.9327 1.35305 12.1362 2.54786 10.6067C3.74268 9.07722 5.29064 7.86037 7.05901 7.0605C8.01022 4.95584 9.54839 3.17025 11.489 1.91791C13.4297 0.665571 15.6904 -0.000355597 18 1.36806e-06ZM12 9C10.8181 9 9.64779 9.23279 8.55586 9.68509C7.46393 10.1374 6.47177 10.8003 5.63605 11.636C4.80032 12.4718 4.13738 13.4639 3.68509 14.5559C3.2328 15.6478 3.00001 16.8181 3.00001 18C3.00001 19.1819 3.2328 20.3522 3.68509 21.4442C4.13738 22.5361 4.80032 23.5282 5.63605 24.364C6.47177 25.1997 7.46393 25.8626 8.55586 26.3149C9.64779 26.7672 10.8181 27 12 27C14.387 27 16.6761 26.0518 18.364 24.364C20.0518 22.6761 21 20.3869 21 18C21 15.6131 20.0518 13.3239 18.364 11.636C16.6761 9.94821 14.387 9 12 9ZM13.5 10.5V12H16.5V15H10.5C10.3126 14.9997 10.1318 15.0695 9.99333 15.1958C9.85484 15.322 9.76863 15.4956 9.7517 15.6822C9.73476 15.8689 9.78833 16.0551 9.90184 16.2042C10.0154 16.3534 10.1806 16.4546 10.365 16.488L10.5 16.5H13.5C14.4946 16.5 15.4484 16.8951 16.1517 17.5984C16.8549 18.3016 17.25 19.2554 17.25 20.25C17.25 21.2446 16.8549 22.1984 16.1517 22.9017C15.4484 23.6049 14.4946 24 13.5 24V25.5H10.5V24H7.50001V21H13.5C13.6874 21.0003 13.8682 20.9305 14.0067 20.8042C14.1452 20.678 14.2314 20.5044 14.2483 20.3178C14.2653 20.1311 14.2117 19.9449 14.0982 19.7958C13.9847 19.6466 13.8194 19.5454 13.635 19.512L13.5 19.5H10.5C9.50545 19.5 8.55162 19.1049 7.84836 18.4017C7.1451 17.6984 6.75001 16.7446 6.75001 15.75C6.75001 14.7554 7.1451 13.8016 7.84836 13.0984C8.55162 12.3951 9.50545 12 10.5 12V10.5H13.5ZM18 3C16.729 2.99851 15.4722 3.26691 14.3127 3.78744C13.1533 4.30797 12.1175 5.06877 11.274 6.0195C12.9694 5.91658 14.6673 6.17474 16.2555 6.77692C17.8437 7.3791 19.286 8.31157 20.4869 9.51267C21.6879 10.7138 22.6202 12.1561 23.2222 13.7444C23.8242 15.3327 24.0821 17.0306 23.979 18.726C25.3428 17.5134 26.3058 15.9149 26.7402 14.1425C27.1747 12.37 27.06 10.5074 26.4115 8.80158C25.7629 7.09579 24.6112 5.62746 23.1089 4.59132C21.6067 3.55519 19.8249 3.00021 18 3Z" fill="#00C2FF"/>
</svg>
