<svg width="36" height="36" viewBox="0 0 36 36" fill="none" xmlns="http://www.w3.org/2000/svg">
<path d="M21.7725 7.49997L25.6815 3.58947C25.8208 3.45 25.9862 3.33936 26.1683 3.26388C26.3504 3.18839 26.5456 3.14954 26.7427 3.14954C26.9399 3.14954 27.135 3.18839 27.3171 3.26388C27.4992 3.33936 27.6647 3.45 27.804 3.58947L34.167 9.95397C34.4482 10.2353 34.6062 10.6167 34.6062 11.0145C34.6062 11.4122 34.4482 11.7937 34.167 12.075L28.5 17.742V31.5C28.5 31.8978 28.342 32.2793 28.0606 32.5606C27.7793 32.8419 27.3978 33 27 33H8.99999C8.60217 33 8.22064 32.8419 7.93933 32.5606C7.65803 32.2793 7.49999 31.8978 7.49999 31.5V17.742L1.83299 12.075C1.55179 11.7937 1.39381 11.4122 1.39381 11.0145C1.39381 10.6167 1.55179 10.2353 1.83299 9.95397L8.19599 3.58947C8.3353 3.45 8.50073 3.33936 8.68283 3.26388C8.86493 3.18839 9.06012 3.14954 9.25724 3.14954C9.45437 3.14954 9.64956 3.18839 9.83165 3.26388C10.0138 3.33936 10.1792 3.45 10.3185 3.58947L14.2275 7.49997H21.7725ZM23.0145 10.5H12.9855L9.25799 6.77247L5.01449 11.0145L10.5 16.5V30H25.5V16.5L30.9855 11.0145L26.742 6.77247L23.0145 10.5Z" fill="#FFFBFB"/>
</svg>
