<svg width="36" height="36" viewBox="0 0 36 36" fill="none" xmlns="http://www.w3.org/2000/svg">
<path d="M13.4475 27C13.2692 28.2514 12.6453 29.3965 11.6905 30.2249C10.7357 31.0533 9.51408 31.5094 8.25 31.5094C6.98592 31.5094 5.76429 31.0533 4.80948 30.2249C3.85468 29.3965 3.23082 28.2514 3.0525 27H1.5V9C1.5 8.60218 1.65804 8.22064 1.93934 7.93934C2.22064 7.65804 2.60218 7.5 3 7.5H24C24.3978 7.5 24.7794 7.65804 25.0607 7.93934C25.342 8.22064 25.5 8.60218 25.5 9V12H30L34.5 18.084V27H31.4475C31.2692 28.2514 30.6453 29.3965 29.6905 30.2249C28.7357 31.0533 27.5141 31.5094 26.25 31.5094C24.9859 31.5094 23.7643 31.0533 22.8095 30.2249C21.8547 29.3965 21.2308 28.2514 21.0525 27H13.4475ZM22.5 10.5H4.5V22.575C5.09184 21.9708 5.8209 21.5185 6.62513 21.2567C7.42936 20.9948 8.28494 20.9312 9.11907 21.0711C9.95319 21.211 10.7412 21.5504 11.4159 22.0604C12.0907 22.5703 12.6322 23.2357 12.9945 24H21.5055C21.7575 23.4705 22.095 22.989 22.5 22.575V10.5ZM25.5 19.5H31.5V19.0725L28.488 15H25.5V19.5ZM26.25 28.5C26.8469 28.5 27.4194 28.2629 27.8415 27.8408C28.2636 27.4187 28.5007 26.8462 28.5007 26.2493C28.5007 25.6523 28.2636 25.0798 27.8415 24.6577C27.4194 24.2356 26.8469 23.9985 26.25 23.9985C25.6531 23.9985 25.0806 24.2356 24.6585 24.6577C24.2364 25.0798 23.9993 25.6523 23.9993 26.2493C23.9993 26.8462 24.2364 27.4187 24.6585 27.8408C25.0806 28.2629 25.6531 28.5 26.25 28.5ZM10.5 26.25C10.5 25.9545 10.4418 25.6619 10.3287 25.389C10.2157 25.116 10.0499 24.8679 9.84099 24.659C9.63206 24.4501 9.38402 24.2843 9.11104 24.1713C8.83806 24.0582 8.54547 24 8.25 24C7.95453 24 7.66194 24.0582 7.38896 24.1713C7.11598 24.2843 6.86794 24.4501 6.65901 24.659C6.45008 24.8679 6.28434 25.116 6.17127 25.389C6.0582 25.6619 6 25.9545 6 26.25C6 26.8467 6.23705 27.419 6.65901 27.841C7.08097 28.2629 7.65326 28.5 8.25 28.5C8.84674 28.5 9.41903 28.2629 9.84099 27.841C10.2629 27.419 10.5 26.8467 10.5 26.25Z" fill="#3A3A3A"/>
</svg>
