<svg width="30" height="30" viewBox="0 0 30 30" fill="none" xmlns="http://www.w3.org/2000/svg">
<path d="M11.169 9.04796L15 12.879L25.092 2.78696C25.6546 2.22454 26.4175 1.9086 27.213 1.9086C28.0085 1.9086 28.7714 2.22454 29.334 2.78696L11.169 20.952C11.9108 22.2099 12.1682 23.6953 11.8932 25.1295C11.6181 26.5638 10.8294 27.8484 9.67488 28.7428C8.52037 29.6371 7.07932 30.0796 5.62185 29.9875C4.16438 29.8953 2.79056 29.2747 1.75792 28.2421C0.725271 27.2094 0.104697 25.8356 0.0125201 24.3781C-0.0796566 22.9207 0.362892 21.4796 1.25721 20.3251C2.15153 19.1706 3.43622 18.3819 4.87046 18.1068C6.3047 17.8317 7.79003 18.0892 9.04802 18.831L12.879 15L9.04802 11.169C7.79003 11.9107 6.3047 12.1682 4.87046 11.8931C3.43622 11.618 2.15153 10.8293 1.25721 9.67482C0.362892 8.52031 -0.0796566 7.07925 0.0125201 5.62179C0.104697 4.16432 0.725271 2.7905 1.75792 1.75785C2.79056 0.72521 4.16438 0.104636 5.62185 0.0124591C7.07932 -0.0797177 8.52037 0.362831 9.67488 1.25715C10.8294 2.15147 11.6181 3.43616 11.8932 4.8704C12.1682 6.30464 11.9108 7.78997 11.169 9.04796ZM19.239 17.118L29.334 27.213C28.7714 27.7754 28.0085 28.0913 27.213 28.0913C26.4175 28.0913 25.6546 27.7754 25.092 27.213L17.1165 19.239L19.239 17.1165V17.118ZM8.12102 21.879C7.84428 21.5924 7.51324 21.3639 7.14723 21.2067C6.78122 21.0494 6.38756 20.9667 5.98922 20.9632C5.59088 20.9597 5.19584 21.0357 4.82716 21.1865C4.45847 21.3373 4.12351 21.5601 3.84183 21.8418C3.56015 22.1235 3.33739 22.4584 3.18655 22.8271C3.03571 23.1958 2.9598 23.5908 2.96327 23.9892C2.96673 24.3875 3.04949 24.7812 3.20671 25.1472C3.36394 25.5132 3.59249 25.8442 3.87902 26.121C4.44482 26.6674 5.20263 26.9698 5.98922 26.963C6.77581 26.9561 7.52825 26.6406 8.08447 26.0844C8.6407 25.5282 8.9562 24.7758 8.96304 23.9892C8.96987 23.2026 8.66749 22.4448 8.12102 21.879ZM8.12102 8.12096C8.40755 7.84422 8.63609 7.51318 8.79332 7.14717C8.95055 6.78116 9.03331 6.3875 9.03677 5.98916C9.04023 5.59082 8.96432 5.19578 8.81348 4.82709C8.66264 4.45841 8.43988 4.12345 8.1582 3.84177C7.87652 3.56009 7.54157 3.33733 7.17288 3.18649C6.80419 3.03565 6.40915 2.95974 6.01081 2.96321C5.61248 2.96667 5.21882 3.04943 4.8528 3.20665C4.48679 3.36388 4.15576 3.59243 3.87902 3.87896C3.33254 4.44476 3.03016 5.20257 3.037 5.98916C3.04383 6.77575 3.35934 7.52819 3.91556 8.08441C4.47179 8.64064 5.22422 8.95614 6.01081 8.96298C6.7974 8.96981 7.55521 8.66743 8.12102 8.12096Z" fill="#3A3A3A"/>
</svg>
