<svg width="40" height="40" viewBox="0 0 40 40" fill="none" xmlns="http://www.w3.org/2000/svg">
<path d="M24.1917 8.33332L28.535 3.98832C28.6898 3.83336 28.8736 3.71043 29.0759 3.62656C29.2783 3.54268 29.4952 3.49951 29.7142 3.49951C29.9332 3.49951 30.1501 3.54268 30.3524 3.62656C30.5547 3.71043 30.7386 3.83336 30.8933 3.98832L37.9633 11.06C38.2758 11.3725 38.4513 11.7964 38.4513 12.2383C38.4513 12.6803 38.2758 13.1041 37.9633 13.4167L31.6667 19.7133V35C31.6667 35.442 31.4911 35.8659 31.1785 36.1785C30.866 36.4911 30.442 36.6667 30 36.6667H10C9.55799 36.6667 9.13407 36.4911 8.82151 36.1785C8.50894 35.8659 8.33335 35.442 8.33335 35V19.7133L2.03668 13.4167C1.72423 13.1041 1.54871 12.6803 1.54871 12.2383C1.54871 11.7964 1.72423 11.3725 2.03668 11.06L9.10668 3.98832C9.26147 3.83336 9.44529 3.71043 9.64762 3.62656C9.84995 3.54268 10.0668 3.49951 10.2858 3.49951C10.5049 3.49951 10.7218 3.54268 10.9241 3.62656C11.1264 3.71043 11.3102 3.83336 11.465 3.98832L15.8083 8.33332H24.1917ZM25.5717 11.6667H14.4283L10.2867 7.52499L5.57168 12.2383L11.6667 18.3333V33.3333H28.3333V18.3333L34.4283 12.2383L29.7133 7.52499L25.5717 11.6667Z" fill="#00C2FF"/>
</svg>
