<svg width="40" height="40" viewBox="0 0 40 40" fill="none" xmlns="http://www.w3.org/2000/svg">
<path d="M35 31.6667H38.3333V35H1.66667V31.6667H5V6.66667C5 6.22464 5.1756 5.80072 5.48816 5.48816C5.80072 5.17559 6.22464 5 6.66667 5H23.3333C23.7754 5 24.1993 5.17559 24.5118 5.48816C24.8244 5.80072 25 6.22464 25 6.66667V31.6667H31.6667V18.3333H28.3333V15H33.3333C33.7754 15 34.1993 15.1756 34.5118 15.4882C34.8244 15.8007 35 16.2246 35 16.6667V31.6667ZM8.33334 8.33333V31.6667H21.6667V8.33333H8.33334ZM11.6667 18.3333H18.3333V21.6667H11.6667V18.3333ZM11.6667 11.6667H18.3333V15H11.6667V11.6667Z" fill="#00C2FF"/>
</svg>
