<svg width="150" height="180" viewBox="0 0 150 180" fill="none" xmlns="http://www.w3.org/2000/svg">
<circle cx="90" cy="90" r="90" fill="#EEF8FF"/>
<g opacity="0.2">
<mask id="mask0_2_262" style="mask-type:alpha" maskUnits="userSpaceOnUse" x="13" y="20" width="155" height="140">
<rect x="13" y="20" width="154.286" height="139.766" rx="69.8832" fill="#1F120C"/>
</mask>
<g mask="url(#mask0_2_262)">
<line y1="-1" x2="146.815" y2="-1" transform="matrix(-0.741118 0.671375 -0.741118 -0.671375 146.851 42.1646)" stroke="#00C2FF" stroke-width="2"/>
<line y1="-1" x2="146.815" y2="-1" transform="matrix(-0.74112 0.671373 -0.74112 -0.671373 152.607 47.3789)" stroke="#3A3A3A" stroke-width="2"/>
<line y1="-1" x2="146.815" y2="-1" transform="matrix(-0.741118 0.671375 -0.741118 -0.671375 158.363 52.5945)" stroke="#00C2FF" stroke-width="2"/>
<line y1="-1" x2="146.815" y2="-1" transform="matrix(-0.741118 0.671375 -0.741118 -0.671375 164.121 57.8096)" stroke="#3A3A3A" stroke-width="2"/>
<line y1="-1" x2="146.815" y2="-1" transform="matrix(-0.741118 0.671375 -0.741118 -0.671375 169.877 63.0251)" stroke="#00C2FF" stroke-width="2"/>
<line y1="-1" x2="146.815" y2="-1" transform="matrix(-0.741119 0.671374 -0.741119 -0.671374 175.634 68.2397)" stroke="#3A3A3A" stroke-width="2"/>
<line y1="-1" x2="146.815" y2="-1" transform="matrix(-0.741118 0.671375 -0.741118 -0.671375 181.392 73.4553)" stroke="#00C2FF" stroke-width="2"/>
<line y1="-1" x2="146.815" y2="-1" transform="matrix(-0.741119 0.671374 -0.741119 -0.671374 187.148 78.6707)" stroke="#3A3A3A" stroke-width="2"/>
<line y1="-1" x2="146.815" y2="-1" transform="matrix(-0.741119 0.671374 -0.741119 -0.671374 192.906 83.8848)" stroke="#00C2FF" stroke-width="2"/>
<line y1="-1" x2="146.815" y2="-1" transform="matrix(-0.741119 0.671374 -0.741119 -0.671374 198.951 89.5342)" stroke="#3A3A3A" stroke-width="2"/>
<line y1="-1" x2="146.815" y2="-1" transform="matrix(-0.741119 0.671374 -0.741119 -0.671374 141.092 36.9492)" stroke="#3A3A3A" stroke-width="2"/>
<line y1="-1" x2="146.815" y2="-1" transform="matrix(-0.741119 0.671374 -0.741119 -0.671374 135.336 31.7332)" stroke="#00C2FF" stroke-width="2"/>
<line y1="-1" x2="146.815" y2="-1" transform="matrix(-0.74112 0.671373 -0.74112 -0.671373 129.58 26.5178)" stroke="#3A3A3A" stroke-width="2"/>
<line y1="-1" x2="146.815" y2="-1" transform="matrix(-0.741119 0.671374 -0.741119 -0.671374 123.822 21.3037)" stroke="#00C2FF" stroke-width="2"/>
<line y1="-1" x2="146.815" y2="-1" transform="matrix(-0.741119 0.671374 -0.741119 -0.671374 118.066 16.0879)" stroke="#3A3A3A" stroke-width="2"/>
<line y1="-1" x2="146.815" y2="-1" transform="matrix(-0.741119 0.671374 -0.741119 -0.671374 112.307 10.8726)" stroke="#00C2FF" stroke-width="2"/>
<line y1="-1" x2="146.815" y2="-1" transform="matrix(-0.741118 0.671375 -0.741118 -0.671375 106.551 5.65845)" stroke="#3A3A3A" stroke-width="2"/>
<line y1="-1" x2="146.815" y2="-1" transform="matrix(-0.74112 0.671373 -0.74112 -0.671373 100.795 0.442871)" stroke="#00C2FF" stroke-width="2"/>
<line y1="-1" x2="146.815" y2="-1" transform="matrix(-0.741119 0.671374 -0.741119 -0.671374 95.0364 -4.77246)" stroke="#3A3A3A" stroke-width="2"/>
<line y1="-1" x2="146.815" y2="-1" transform="matrix(-0.741119 0.671374 -0.741119 -0.671374 89.2805 -9.9873)" stroke="#00C2FF" stroke-width="2"/>
</g>
</g>
</svg>
