<svg width="140" height="180" viewBox="0 0 140 180" fill="none" xmlns="http://www.w3.org/2000/svg">
<circle cx="50" cy="90" r="90" fill="#EEF8FF"/>
<g opacity="0.2">
<mask id="mask0_2_238" style="mask-type:alpha" maskUnits="userSpaceOnUse" x="-27" y="20" width="155" height="140">
<rect x="-27" y="20" width="154.286" height="139.766" rx="69.8831" fill="#1F120C"/>
</mask>
<g mask="url(#mask0_2_238)">
<line y1="-1" x2="146.815" y2="-1" transform="matrix(-0.741118 0.671375 -0.741118 -0.671375 106.851 42.1643)" stroke="#00C2FF" stroke-width="2"/>
<line y1="-1" x2="146.815" y2="-1" transform="matrix(-0.741118 0.671375 -0.741118 -0.671375 112.607 47.3784)" stroke="#3A3A3A" stroke-width="2"/>
<line y1="-1" x2="146.815" y2="-1" transform="matrix(-0.741119 0.671374 -0.741119 -0.671374 118.362 52.5942)" stroke="#00C2FF" stroke-width="2"/>
<line y1="-1" x2="146.815" y2="-1" transform="matrix(-0.741119 0.671374 -0.741119 -0.671374 124.121 57.8098)" stroke="#3A3A3A" stroke-width="2"/>
<line y1="-1" x2="146.815" y2="-1" transform="matrix(-0.741119 0.671374 -0.741119 -0.671374 129.877 63.0249)" stroke="#00C2FF" stroke-width="2"/>
<line y1="-1" x2="146.815" y2="-1" transform="matrix(-0.741118 0.671375 -0.741118 -0.671375 135.633 68.2393)" stroke="#3A3A3A" stroke-width="2"/>
<line y1="-1" x2="146.816" y2="-1" transform="matrix(-0.741117 0.671376 -0.741117 -0.671376 141.392 73.4548)" stroke="#00C2FF" stroke-width="2"/>
<line y1="-1" x2="146.815" y2="-1" transform="matrix(-0.741119 0.671374 -0.741119 -0.671374 147.148 78.6707)" stroke="#3A3A3A" stroke-width="2"/>
<line y1="-1" x2="146.815" y2="-1" transform="matrix(-0.741119 0.671374 -0.741119 -0.671374 152.906 83.8848)" stroke="#00C2FF" stroke-width="2"/>
<line y1="-1" x2="146.816" y2="-1" transform="matrix(-0.741117 0.671376 -0.741117 -0.671376 158.951 89.5337)" stroke="#3A3A3A" stroke-width="2"/>
<line y1="-1" x2="146.815" y2="-1" transform="matrix(-0.741119 0.671374 -0.741119 -0.671374 101.092 36.949)" stroke="#3A3A3A" stroke-width="2"/>
<line y1="-1" x2="146.815" y2="-1" transform="matrix(-0.741119 0.671374 -0.741119 -0.671374 95.3359 31.7332)" stroke="#00C2FF" stroke-width="2"/>
<line y1="-1" x2="146.815" y2="-1" transform="matrix(-0.741119 0.671374 -0.741119 -0.671374 89.5798 26.5176)" stroke="#3A3A3A" stroke-width="2"/>
<line y1="-1" x2="146.815" y2="-1" transform="matrix(-0.741118 0.671375 -0.741118 -0.671375 83.8215 21.3035)" stroke="#00C2FF" stroke-width="2"/>
<line y1="-1" x2="146.815" y2="-1" transform="matrix(-0.74112 0.671373 -0.74112 -0.671373 78.0655 16.0879)" stroke="#3A3A3A" stroke-width="2"/>
<line y1="-1" x2="146.815" y2="-1" transform="matrix(-0.74112 0.671373 -0.74112 -0.671373 72.307 10.8726)" stroke="#00C2FF" stroke-width="2"/>
<line y1="-1" x2="146.815" y2="-1" transform="matrix(-0.741118 0.671375 -0.741118 -0.671375 66.5511 5.6582)" stroke="#3A3A3A" stroke-width="2"/>
<line y1="-1" x2="146.815" y2="-1" transform="matrix(-0.741119 0.671374 -0.741119 -0.671374 60.7948 0.442383)" stroke="#00C2FF" stroke-width="2"/>
<line y1="-1" x2="146.815" y2="-1" transform="matrix(-0.741119 0.671374 -0.741119 -0.671374 55.0364 -4.77295)" stroke="#3A3A3A" stroke-width="2"/>
<line y1="-1" x2="146.815" y2="-1" transform="matrix(-0.741119 0.671374 -0.741119 -0.671374 49.2804 -9.9873)" stroke="#00C2FF" stroke-width="2"/>
</g>
</g>
</svg>
