<svg width="40" height="40" viewBox="0 0 40 40" fill="none" xmlns="http://www.w3.org/2000/svg">
<path d="M18.1667 3.5L34.665 5.85833L37.0217 22.3583L21.7017 37.6783C21.3892 37.9908 20.9653 38.1663 20.5234 38.1663C20.0814 38.1663 19.6576 37.9908 19.345 37.6783L2.84503 21.1783C2.53258 20.8658 2.35706 20.4419 2.35706 20C2.35706 19.5581 2.53258 19.1342 2.84503 18.8217L18.1667 3.5ZM19.345 7.03667L6.38003 20L20.5234 34.1417L33.4867 21.1783L31.72 8.80333L19.345 7.03667V7.03667ZM22.8784 17.6433C22.2531 17.0179 21.9019 16.1696 21.9021 15.2852C21.9022 14.8473 21.9885 14.4137 22.1562 14.0092C22.3238 13.6047 22.5695 13.2371 22.8792 12.9275C23.1889 12.6179 23.5565 12.3723 23.9612 12.2048C24.3658 12.0373 24.7994 11.9512 25.2373 11.9512C26.1217 11.9514 26.9698 12.3029 27.595 12.9283C28.2203 13.5538 28.5715 14.402 28.5713 15.2864C28.5711 16.1708 28.2197 17.0189 27.5942 17.6442C26.9687 18.2694 26.1205 18.6206 25.2361 18.6204C24.3517 18.6203 23.5036 18.2688 22.8784 17.6433V17.6433Z" fill="#00C2FF"/>
</svg>
