<svg width="40" height="40" viewBox="0 0 40 40" fill="none" xmlns="http://www.w3.org/2000/svg">
<path d="M29.3633 9.94675L31.785 7.52508L34.1417 9.88175L31.72 12.3034C34.113 15.2987 35.2682 19.0965 34.9485 22.917C34.6288 26.7374 32.8583 30.2904 30.0008 32.8463C27.1433 35.4022 23.4156 36.7669 19.5833 36.6602C15.751 36.5535 12.105 34.9835 9.39414 32.2726C6.68324 29.5617 5.11323 25.9157 5.00655 22.0834C4.89986 18.2511 6.2646 14.5234 8.82048 11.6659C11.3764 8.80842 14.9294 7.038 18.7498 6.71828C22.5702 6.39856 26.3681 7.5538 29.3633 9.94675V9.94675ZM20 33.3334C21.5321 33.3334 23.0492 33.0316 24.4647 32.4453C25.8801 31.859 27.1662 30.9997 28.2496 29.9163C29.3329 28.833 30.1923 27.5469 30.7786 26.1314C31.3649 24.7159 31.6667 23.1988 31.6667 21.6667C31.6667 20.1347 31.3649 18.6176 30.7786 17.2021C30.1923 15.7866 29.3329 14.5005 28.2496 13.4172C27.1662 12.3338 25.8801 11.4745 24.4647 10.8882C23.0492 10.3018 21.5321 10.0001 20 10.0001C16.9058 10.0001 13.9384 11.2292 11.7504 13.4172C9.56251 15.6051 8.33335 18.5726 8.33335 21.6667C8.33335 24.7609 9.56251 27.7284 11.7504 29.9163C13.9384 32.1043 16.9058 33.3334 20 33.3334V33.3334ZM18.3333 13.3334H21.6667V23.3334H18.3333V13.3334ZM13.3333 1.66675H26.6667V5.00008H13.3333V1.66675Z" fill="#00C2FF"/>
</svg>
